<svg width="18" height="19" viewBox="0 0 18 19" fill="none" xmlns="http://www.w3.org/2000/svg">
<path d="M17.3048 4.29241L16.0698 3.05741C15.9687 2.95837 15.8374 2.90784 15.706 2.90784C15.5746 2.90784 15.4432 2.95837 15.3421 3.05741L2.01585 16.3857C1.81373 16.5858 1.81373 16.9133 2.01585 17.1154L3.24883 18.3484C3.34788 18.4474 3.47926 18.5 3.61266 18.5C3.74607 18.5 3.87543 18.4474 3.97649 18.3484L14.9642 7.35869L17.3048 5.02209C17.5049 4.81997 17.5049 4.49252 17.3048 4.29241ZM16.9814 4.69869L14.9642 6.71391L13.6483 5.39805L15.6635 3.38082C15.6777 3.37071 15.6898 3.36465 15.706 3.36465C15.7221 3.36465 15.7363 3.37071 15.7464 3.38082L16.9814 4.61582C16.9814 4.61582 16.9976 4.64007 16.9976 4.65624C16.9976 4.67241 16.9915 4.68656 16.9814 4.69869Z" fill="#0F44F3"/>
<path d="M3.28123 8.52096L3.99676 10.1845C4.05336 10.3159 4.24134 10.3179 4.29793 10.1845L5.03772 8.49064C5.21559 8.08032 5.54304 7.75288 5.95336 7.575L7.64921 6.83522C7.78059 6.77862 7.78059 6.59064 7.64921 6.53405L5.95336 5.79426C5.54304 5.61639 5.21559 5.28894 5.03772 4.87862L4.29793 3.18277C4.24134 3.05138 4.05336 3.05138 3.99676 3.18277L3.25697 4.87862C3.0791 5.28894 2.75165 5.61639 2.34133 5.79426L0.643459 6.53607C0.512076 6.59266 0.512076 6.77862 0.643459 6.83724L2.37165 7.60128C2.77995 7.78118 3.10538 8.11064 3.28325 8.52096H3.28123Z" fill="#0F44F3"/>
<path d="M7.55426 2.49146L8.47192 2.89774C8.68819 2.99274 8.86202 3.16859 8.955 3.38689L9.335 4.27019C9.36532 4.34093 9.46437 4.34093 9.49468 4.27019L9.88681 3.37072C9.98181 3.15242 10.1556 2.97859 10.3739 2.88359L11.2734 2.49146C11.3442 2.46115 11.3442 2.3621 11.2734 2.33178L10.3739 1.93966C10.1556 1.84466 9.98181 1.67083 9.88681 1.45253L9.49468 0.553059C9.46437 0.482314 9.36532 0.482314 9.335 0.553059L8.94288 1.45253C8.84788 1.67083 8.67405 1.84466 8.45575 1.93966L7.55426 2.33381C7.48553 2.36412 7.48351 2.46317 7.55426 2.49349V2.49146Z" fill="#0F44F3"/>
<path d="M15.7585 14.0006L14.8024 13.5842C14.572 13.4832 14.388 13.2992 14.287 13.0688L13.8706 12.1127C13.8382 12.0379 13.7331 12.0379 13.7008 12.1127L13.2844 13.0688C13.1834 13.2992 12.9994 13.4832 12.769 13.5842L11.8129 14.0026C11.7381 14.035 11.7381 14.1401 11.8129 14.1724L12.7872 14.6029C13.0176 14.704 13.2015 14.89 13.3006 15.1224L13.7048 16.0603C13.7372 16.1351 13.8423 16.1351 13.8746 16.0603L14.291 15.1062C14.3921 14.8758 14.576 14.6919 14.8064 14.5908L15.7625 14.1744C15.8373 14.1421 15.8373 14.037 15.7625 14.0046L15.7585 14.0006Z" fill="#0F44F3"/>
</svg>
