<svg width="19" height="21" viewBox="0 0 19 21" fill="none" xmlns="http://www.w3.org/2000/svg">
<path d="M18.8332 4.71383L17.461 3.34161C17.3487 3.23156 17.2028 3.17542 17.0568 3.17542C16.9108 3.17542 16.7648 3.23156 16.6525 3.34161L1.84568 18.1509C1.6211 18.3732 1.6211 18.737 1.84568 18.9616L3.21565 20.3316C3.32569 20.4416 3.47167 20.5 3.6199 20.5C3.76813 20.5 3.91186 20.4416 4.02415 20.3316L16.2326 8.12082L18.8332 5.52459C19.0556 5.30001 19.0556 4.93618 18.8332 4.71383ZM18.4739 5.16525L16.2326 7.40438L14.7705 5.94232L17.0096 3.70095C17.0253 3.68972 17.0388 3.68298 17.0568 3.68298C17.0747 3.68298 17.0905 3.68972 17.1017 3.70095L18.4739 5.07317C18.4739 5.07317 18.4919 5.10012 18.4919 5.11809C18.4919 5.13606 18.4851 5.15178 18.4739 5.16525Z" fill="#FFCC00"/>
<path d="M3.25125 9.41228L4.04627 11.2606C4.10916 11.4066 4.31802 11.4089 4.3809 11.2606L5.20288 9.37859C5.40052 8.92268 5.76434 8.55885 6.22025 8.36122L8.10451 7.53923C8.25049 7.47634 8.25049 7.26748 8.10451 7.2046L6.22025 6.38261C5.76434 6.18497 5.40052 5.82114 5.20288 5.36523L4.3809 3.48095C4.31802 3.33496 4.10916 3.33496 4.04627 3.48095L3.2243 5.36523C3.02666 5.82114 2.66284 6.18497 2.20693 6.38261L0.320422 7.20684C0.174443 7.26972 0.174443 7.47635 0.320422 7.54148L2.24062 8.39041C2.69428 8.5903 3.05586 8.95637 3.25349 9.41228H3.25125Z" fill="#FFCC00"/>
<path d="M7.99903 2.71274L9.01864 3.16416C9.25895 3.26972 9.45209 3.46511 9.5554 3.70766L9.97762 4.68911C10.0113 4.76771 10.1214 4.76771 10.155 4.68911L10.5907 3.68969C10.6963 3.44714 10.8894 3.254 11.132 3.14844L12.1314 2.71274C12.21 2.67905 12.21 2.56901 12.1314 2.53532L11.132 2.09962C10.8894 1.99406 10.6963 1.80092 10.5907 1.55837L10.155 0.558954C10.1214 0.480349 10.0113 0.480349 9.97762 0.558954L9.54193 1.55837C9.43637 1.80092 9.24323 1.99406 9.00068 2.09962L7.99903 2.53756C7.92267 2.57125 7.92043 2.6813 7.99903 2.71499V2.71274Z" fill="#FFCC00"/>
<path d="M17.1147 15.5007L16.0524 15.038C15.7964 14.9257 15.592 14.7213 15.4797 14.4653L15.017 13.403C14.9811 13.3199 14.8643 13.3199 14.8284 13.403L14.3658 14.4653C14.2535 14.7213 14.0491 14.9257 13.7931 15.038L12.7308 15.5029C12.6477 15.5388 12.6477 15.6556 12.7308 15.6916L13.8133 16.1699C14.0693 16.2822 14.2737 16.4888 14.3837 16.7471L14.8329 17.7892C14.8688 17.8723 14.9856 17.8723 15.0215 17.7892L15.4842 16.7292C15.5965 16.4731 15.8008 16.2687 16.0569 16.1565L17.1192 15.6938C17.2023 15.6579 17.2023 15.5411 17.1192 15.5052L17.1147 15.5007Z" fill="#FFCC00"/>
</svg>
