<svg width="44" height="45" viewBox="0 0 44 45" fill="none" xmlns="http://www.w3.org/2000/svg">
<rect y="0.369141" width="44" height="44" rx="8" fill="#0F44F3" fill-opacity="0.2"/>
<path fill-rule="evenodd" clip-rule="evenodd" d="M22.7501 32.1193C22.7501 32.4223 22.9331 32.696 23.2129 32.8123C23.4934 32.9285 23.8159 32.864 24.0304 32.6495L32.2804 24.3995C32.4949 24.185 32.5594 23.8625 32.4431 23.582C32.3269 23.3023 32.0531 23.1193 31.7501 23.1193H27.2501V12.6193C27.2501 12.2053 26.9141 11.8693 26.5001 11.8693H23.5001C23.0861 11.8693 22.7501 12.2053 22.7501 12.6193V32.1193ZM21.2501 12.6193C21.2501 12.3163 21.0671 12.0425 20.7874 11.9263C20.5069 11.81 20.1844 11.8745 19.9699 12.089L11.7199 20.339C11.5054 20.5535 11.4409 20.876 11.5571 21.1565C11.6734 21.4363 11.9471 21.6193 12.2501 21.6193H16.7501V32.1193C16.7501 32.5333 17.0861 32.8693 17.5001 32.8693H20.5001C20.9141 32.8693 21.2501 32.5333 21.2501 32.1193V12.6193Z" fill="#076AFE"/>
</svg>
