<svg width="44" height="45" viewBox="0 0 44 45" fill="none" xmlns="http://www.w3.org/2000/svg">
<rect y="0.369141" width="44" height="44" rx="8" fill="#0F44F3" fill-opacity="0.2"/>
<path d="M32.1498 15.7695V27.169C32.1498 27.3899 31.9707 27.569 31.7498 27.569H26.6415C25.9516 27.569 25.2756 27.805 24.7371 28.2335C24.6271 28.321 24.4846 28.369 24.3356 28.369H19.6648C19.5158 28.369 19.3703 28.3185 19.2548 28.227C18.7223 27.8025 18.0489 27.569 17.3589 27.569H12.2506C12.0297 27.569 11.8506 27.3899 11.8506 27.169V15.7695C11.8506 14.6649 12.746 13.7695 13.8505 13.7695H14.2005C14.4214 13.7695 14.6005 13.9486 14.6005 14.1695V22.2404C14.6005 23.5187 15.598 24.5009 16.8244 24.4936C18.1603 24.4846 19.5328 24.7651 20.6888 25.2841C21.5156 25.6545 22.4847 25.6722 23.3512 25.2841C24.4446 24.7932 25.7543 24.4936 27.231 24.4936C28.4382 24.4936 29.4394 23.5242 29.4394 22.2406V14.1695C29.4394 13.9486 29.6185 13.7695 29.8394 13.7695H30.1499C31.2544 13.7695 32.1498 14.6649 32.1498 15.7695Z" fill="#076AFE"/>
<path d="M33.959 29.6466C33.6595 30.6631 32.8026 32.3685 30.4247 32.3685H13.5753C11.1974 32.3685 10.3404 30.6631 10.0409 29.6466C9.85299 29.0088 10.3357 28.3687 11.0084 28.3687H17.3587C17.8681 28.3687 18.3646 28.5406 18.7566 28.8521C19.0126 29.0561 19.3351 29.1686 19.6646 29.1686H24.3354C24.6644 29.1686 24.9844 29.0586 25.2349 28.8591C25.6324 28.5426 26.1318 28.3687 26.6413 28.3687H32.9916C33.6644 28.3687 34.1469 29.009 33.959 29.6466Z" fill="#076AFE"/>
<path d="M27.2269 12.3694C25.6203 12.3585 24.0294 12.6921 22.6534 13.3195C22.5108 13.3845 22.4196 13.527 22.4196 13.6837V21.8141C22.4196 22.0268 22.2595 22.2128 22.0473 22.2271C21.8144 22.2428 21.6197 22.0582 21.6197 21.8281V13.6837C21.6197 13.5271 21.5285 13.3845 21.386 13.3195C20.0431 12.7074 18.5062 12.3634 16.8128 12.3694C16.0339 12.3721 15.4004 13.0104 15.4004 13.7858V22.278C15.4004 23.0755 16.0546 23.7036 16.8188 23.6935C18.2668 23.6825 19.7577 23.9895 21.0162 24.5539C21.6541 24.8399 22.3856 24.8399 23.0236 24.5539C24.2821 23.9895 25.774 23.6825 27.2209 23.6935C27.9933 23.6997 28.6394 23.0711 28.6394 22.278V13.7858C28.6394 13.0104 28.0059 12.3749 27.2269 12.3694ZM23.9106 19.8331C24.513 19.6766 25.141 19.5561 25.7775 19.4761C25.9965 19.4481 26.197 19.6036 26.2245 19.8226C26.252 20.0416 26.097 20.2421 25.878 20.2696C25.2755 20.3456 24.6815 20.4596 24.1121 20.6076C23.887 20.6638 23.6778 20.5268 23.6241 20.3211C23.5686 20.1071 23.6966 19.8891 23.9106 19.8331ZM23.9106 16.0253C24.513 15.8688 25.141 15.7483 25.7775 15.6683C25.9965 15.6403 26.197 15.7958 26.2245 16.0148C26.252 16.2338 26.097 16.4342 25.878 16.4617C25.2755 16.5377 24.681 16.6517 24.1121 16.7997C23.888 16.8558 23.678 16.7198 23.6241 16.5132C23.5686 16.2993 23.6966 16.0813 23.9106 16.0253ZM20.4157 20.3211C20.3619 20.5271 20.1525 20.6637 19.9277 20.6076C19.3582 20.4596 18.7643 20.3456 18.1618 20.2696C17.9428 20.2421 17.7873 20.0416 17.8153 19.8226C17.8428 19.6036 18.0428 19.4481 18.2623 19.4761C18.8983 19.5561 19.5267 19.6766 20.1292 19.8331C20.3432 19.8891 20.4712 20.1071 20.4157 20.3211ZM17.8153 16.0148C17.8428 15.7958 18.0428 15.6403 18.2623 15.6683C18.8988 15.7483 19.5267 15.8688 20.1292 16.0253C20.3427 16.0813 20.4712 16.2993 20.4157 16.5132C20.3687 16.6932 20.2062 16.8127 20.0287 16.8127C19.9057 16.8127 19.3001 16.6053 18.1618 16.4617C17.9428 16.4342 17.7873 16.2338 17.8153 16.0148Z" fill="#076AFE"/>
</svg>
