<svg width="44" height="45" viewBox="0 0 44 45" fill="none" xmlns="http://www.w3.org/2000/svg">
<rect y="0.369141" width="44" height="44" rx="8" fill="#0F44F3" fill-opacity="0.2"/>
<g clip-path="url(#clip0_91_959)">
<path d="M32.4997 34.3691H28.2812V16.089H26.7812L30.3904 10.3691L33.9996 16.089H32.4997V34.3691Z" fill="#076AFE"/>
<path d="M25.4684 34.369H21.25V21.7135H19.75L23.3592 15.9937L26.9684 21.7135H25.4684V34.369Z" fill="#076AFE"/>
<path d="M14.9227 25.9323C13.372 25.9323 12.1104 24.6707 12.1104 23.1199C12.1104 21.5692 13.372 20.3076 14.9227 20.3076C16.4734 20.3076 17.735 21.5692 17.735 23.1199C17.735 24.6707 16.4734 25.9323 14.9227 25.9323Z" fill="#076AFE"/>
<path d="M16.3287 25.9321H15.6256V30.1506H14.2195V25.9321H13.5164C11.5778 25.9321 10.001 27.5094 10.001 29.4475V34.3691H19.8441V29.4475C19.8441 27.5094 18.2673 25.9321 16.3287 25.9321Z" fill="#076AFE"/>
</g>
<defs>
<clipPath id="clip0_91_959">
<rect width="24" height="24" fill="white" transform="translate(10 10.3691)"/>
</clipPath>
</defs>
</svg>
